# xmcd
#
# Track frame offsets: 
#        150
#        17436
#        35560
#        54935
#        70993
#        90224
#        112998
#        131148
#        147405
#        170336
#
# Disc length: 2447 seconds
#
# Revision: 0
# Processed by: cddbd v1.5.2PL0 Copyright (c) Steve Scherf et al.
# Submitted via: ExactAudioCopy v1.0b4
#
DISCID=7d098d0a
DTITLE=Bryce Janey - Heal The Night
DYEAR=2006
DGENRE=Blues Rock
TTITLE0=Sweet Lovin' You
TTITLE1=Love in New York City
TTITLE2=1973
TTITLE3=Heal the Night
TTITLE4=Chance with Me
TTITLE5=Just Wanna Show You
TTITLE6=Come Sit by the Fire
TTITLE7=Hey Now Baby
TTITLE8=Real Good Time
TTITLE9=Need Your Love
EXTD=
EXTT0=
EXTT1=
EXTT2=
EXTT3=
EXTT4=
EXTT5=
EXTT6=
EXTT7=
EXTT8=
EXTT9=
PLAYORDER=
